<svg width="152" height="184" viewBox="0 0 152 184" fill="none" xmlns="http://www.w3.org/2000/svg">
<path d="M48.0831 93.0415C48.0831 140.027 60.3501 163.172 81.6439 163.172C97.8457 163.172 99.2344 156.691 99.2344 144.887V99.9852H84.4214V94.8932H151.08V99.9852H142.053V165.255H138.582C135.804 161.32 133.258 159.469 126.777 159.469C123.036 159.469 117.973 160.829 111.938 162.451C103.037 164.842 92.0236 167.801 80.0237 167.801C30.9555 167.801 0.866455 141.878 0.866455 86.5608C0.866455 30.549 33.27 0.922852 80.7181 0.922852C95.9519 0.922852 106.551 3.79659 114.333 5.90669C118.848 7.13081 122.415 8.09793 125.389 8.09793C129.092 8.09793 130.018 6.47774 131.638 3.46884H134.184L136.036 53.6944H131.869C118.908 27.7715 103.864 5.55193 83.4956 5.55193C60.5816 5.55193 48.0831 26.8457 48.0831 74.7567V93.0415Z" fill="black"/>
<path fill-rule="evenodd" clip-rule="evenodd" d="M79.2542 22.1377C81.8274 21.2269 84.5134 20.9614 87.7617 21.0613C91.2529 21.1687 95.0877 22.1437 98.4267 23.4693C101.721 24.777 104.914 26.5778 106.931 28.5949C108.183 29.8464 108.183 31.8756 106.931 33.1271C105.68 34.3786 103.651 34.3786 102.399 33.1271C101.257 31.9853 98.9693 30.5809 96.0616 29.4265C93.1991 28.29 90.1123 27.5462 87.5646 27.4678C84.7739 27.3819 82.9539 27.6273 81.3928 28.1799C79.8132 28.7389 78.2561 29.6969 76.0945 31.4174C75.3756 31.9896 74.311 33.2177 73.0952 35.1993C71.9102 37.1307 70.6848 39.6083 69.5785 42.5035C67.3629 48.3016 65.6901 55.6019 65.6901 63.2858C65.6901 71.4223 66.1451 79.041 68.2842 84.7328C69.333 87.5237 70.7317 89.6925 72.5425 91.23C74.3231 92.7419 76.6863 93.8017 79.9622 94.0984C82.3848 94.3178 84.8649 92.9221 87.5429 89.3249C90.1804 85.7821 92.446 80.8218 94.4639 75.6584C95.3873 73.2957 96.2365 70.9512 97.0401 68.7324L97.2369 68.189C98.0885 65.8391 98.9033 63.6073 99.6773 61.7639C100.41 60.0191 101.258 58.2345 102.272 57.0411C102.766 56.4595 103.65 55.5896 104.974 55.2904C106.575 54.9283 107.932 55.5701 108.814 56.401C109.668 57.2059 110.16 58.286 110.467 59.1116C110.81 60.0294 111.094 61.1113 111.337 62.2848C111.825 64.6395 112.213 67.679 112.518 71.1862C113.128 78.2199 113.425 87.4467 113.421 97.512C113.42 99.423 113.409 101.367 113.386 103.335C117.601 102.531 120.911 101.615 123.061 100.49C132.505 95.5457 133.474 86.2156 132.815 82.308C132.52 80.5628 133.696 78.9091 135.441 78.6145C137.186 78.3198 138.84 79.4957 139.135 81.241C140.085 86.8719 138.738 99.5176 126.034 106.168C122.83 107.845 118.284 108.981 113.273 109.874C112.884 126.812 111.722 144.727 109.788 158.138L109.768 158.279L109.735 158.418C108.824 162.266 106.557 168.003 102.63 173.046C98.6803 178.118 92.8553 182.72 84.8658 183.627C76.762 184.547 70.1255 180.972 65.3045 176.518C61.6161 173.111 58.822 169.049 57.0012 165.615C59.7144 166.177 62.513 166.631 65.3941 166.977C66.6035 168.641 68.0299 170.31 69.6537 171.81C73.6279 175.482 78.4964 177.899 84.1428 177.258C89.9035 176.604 94.3137 173.293 97.5725 169.109C100.806 164.956 102.711 160.172 103.465 157.077C105.297 144.306 106.428 127.234 106.838 110.884C103.844 111.304 100.656 111.702 97.4451 112.102L97.4443 112.102C94.3371 112.49 91.2074 112.881 88.2087 113.297C80.9997 114.299 74.2529 115.485 68.9669 117.23C63.4782 119.041 60.5307 121.151 59.5543 123.319C57.3887 128.128 57.1055 135.168 57.8662 142.44C58.116 144.827 58.4714 147.18 58.8832 149.406C55.7236 144.224 53.2192 137.573 51.4208 129.443C51.8011 126.316 52.5209 123.328 53.7101 120.688C55.8926 115.841 61.2834 113.016 66.9581 111.143C72.8355 109.203 80.0769 107.956 87.3266 106.949C90.5527 106.5 93.732 106.105 96.8332 105.719L96.8334 105.719L96.8338 105.719L96.8358 105.719C100.325 105.285 103.716 104.863 106.963 104.392C106.994 102.063 107.011 99.7642 107.012 97.5095C107.015 87.5416 106.72 78.5178 106.132 71.7401C105.898 69.042 105.622 66.7486 105.31 64.9174C104.686 66.4603 104.014 68.3014 103.263 70.3728L103.063 70.9251C102.263 73.1326 101.388 75.5501 100.434 77.9915C98.3847 83.2345 95.8659 88.8784 92.6841 93.1524C92.237 93.7529 91.7649 94.3416 91.2674 94.9081H84.4211V99.8562C82.8775 100.401 81.2003 100.646 79.3841 100.482C74.9334 100.079 71.2848 98.5705 68.3939 96.1158C65.5333 93.6868 63.6009 90.4905 62.2844 86.9876C59.6929 80.0919 59.2806 71.4082 59.2806 63.2858C59.2806 54.7109 61.1383 46.6349 63.5912 40.2156C64.8192 37.0022 66.2126 34.1608 67.632 31.8474C69.0204 29.5844 70.5457 27.642 72.103 26.4025C74.4938 24.4995 76.6994 23.0419 79.2542 22.1377ZM107.206 61.1378C107.206 61.1388 107.197 61.1496 107.177 61.1674C107.187 61.1559 107.195 61.1481 107.2 61.1433C107.204 61.1391 107.206 61.1373 107.206 61.1378Z" fill="#FFF2E9"/>
</svg>
