<svg width="152" height="168" viewBox="0 0 152 168" fill="none" xmlns="http://www.w3.org/2000/svg">
<path d="M48.0831 93.0415C48.0831 140.027 60.3501 163.172 81.6439 163.172C97.8457 163.172 99.2344 156.691 99.2344 144.887V99.9852H84.4214V94.8932H151.08V99.9852H142.053V165.255H138.582C135.804 161.32 133.258 159.469 126.777 159.469C123.036 159.469 117.973 160.829 111.938 162.451C103.037 164.842 92.0236 167.801 80.0237 167.801C30.9555 167.801 0.866455 141.878 0.866455 86.5608C0.866455 30.549 33.27 0.922852 80.7181 0.922852C95.9519 0.922852 106.551 3.79659 114.333 5.90669C118.848 7.13081 122.415 8.09793 125.389 8.09793C129.092 8.09793 130.018 6.47774 131.638 3.46884H134.184L136.036 53.6944H131.869C118.908 27.7715 103.864 5.55193 83.4956 5.55193C60.5816 5.55193 48.0831 26.8457 48.0831 74.7567V93.0415Z" fill="black"/>
</svg>
