<svg width="236" height="239" viewBox="0 0 236 239" fill="none" xmlns="http://www.w3.org/2000/svg">
<path d="M147.208 0.386234C143.48 0.783846 142.206 5.683 145.34 7.83433C148.427 9.95366 154.57 9.14459 158.238 10.177C167.656 12.8272 176.044 19.411 180.922 27.8867C184.784 34.5982 184.058 41.197 186.405 48.0363C187.099 50.0599 188.881 50.9188 190.95 50.6362C194.36 50.1702 194.445 46.5847 194.364 43.8627C194.183 37.7626 191.845 31.0066 189.144 25.6044C181.589 10.4933 164.816 -1.49209 147.208 0.386234Z" fill="#5092FF"/>
<path d="M130.091 14.4209C126.778 15.2014 125.524 19.7869 128.606 21.7359C132.154 23.9794 138.533 23.0267 142.643 24.2565C153.109 27.388 161.594 35.0124 166.686 44.6235C168.77 48.557 170.434 52.7937 171.244 57.1761C171.68 59.5371 171.356 62.5657 172.254 64.7719C172.964 66.5175 175.034 67.5802 176.873 67.1862C180.404 66.4296 180.075 62.9792 179.943 60.2191C179.637 53.8424 177.676 47.7411 175.021 41.9608C168.908 28.6551 157.186 19.0054 143.023 15.6732C139.308 14.799 133.864 13.5324 130.091 14.4209Z" fill="#5092FF"/>
<path d="M131.612 75.8148C129.455 74.1529 128.648 70.2799 127.66 67.8268C125.711 62.9891 123.483 56.6143 120.116 52.6115C116.245 48.0101 103.612 43.4679 98.3706 48.6175C95.5261 51.4122 95.5249 57.3366 95.8874 60.9799C97.6144 78.3299 110.363 95.4691 119.566 109.669C122.012 113.442 131.96 123.273 127.343 127.388C122.251 131.927 116.159 119.928 113.86 116.516C108.764 108.949 104.446 97.236 97.3774 91.5584C92.7938 87.8767 83.8274 85.8956 78.4534 89.1703C74.2784 91.7143 75.6245 102.096 76.6888 105.865C80.9191 120.844 93.4526 131.611 104.605 141.652C107.261 144.045 116.078 150.012 114.97 154.173C113.142 161.041 107.037 155.37 104.224 152.948C98.3063 147.851 92.6321 142.201 87.1071 136.676C85.3163 134.885 82.9925 130.687 80.6406 129.808C71.944 126.557 59.7136 134.937 58.2826 143.523C57.34 149.179 59.7539 154.493 62.7734 159.118C65.8967 163.903 69.8922 168.306 73.8253 172.421C83.1317 182.158 93.8379 190.841 103.844 199.851C123.663 217.697 146.662 240.757 176.116 237.826C184.519 236.989 191.89 234.989 199.7 231.771C205.665 229.313 211.194 225.381 216.056 221.205C220.203 217.644 223.847 213.541 226.834 208.948C245.395 180.413 230.525 149.955 227.499 119.559C226.537 109.894 227.682 99.9024 228.64 90.2693C229.392 82.7168 230.725 75.6953 226.147 68.9679C223.419 64.9602 216.159 58.9453 210.731 60.5782C207.362 61.5923 204.592 66.3676 203.218 69.3483C198.733 79.0845 199.246 90.8969 198.21 101.3C197.949 103.919 198.324 107.219 197.344 109.669C194.702 116.264 188.387 111.379 189.43 105.865C184.69 102.061 181.373 95.1553 178.485 89.8889C172.645 79.2352 167.628 68.1752 162.497 57.1761C159.884 51.5758 158.059 45.3109 154.116 40.4496C150.703 36.2418 140.261 32.0934 135.286 36.227C132.46 38.5751 131.588 43.835 131.617 47.2862C131.743 62.3284 141.586 79.6859 148.681 92.5516C150.638 96.1009 157.26 104.793 153.203 108.34C149.331 111.724 146.355 106.509 144.655 103.583C141.443 98.05 138.932 92.1795 136.082 86.4655C134.507 83.3079 132.018 79.3314 131.612 75.8148Z" fill="#FDD641"/>
<path d="M135.035 36.2551C127.043 38.6991 124.036 47.2763 124.733 54.8938C126.041 69.1916 134.513 84.09 140.836 96.7357C142.652 100.368 147.754 113.81 153.519 108.34C155.54 106.423 154.627 103.82 153.578 101.681C151.315 97.0697 148.837 92.5786 146.541 87.987C138.824 72.55 126.896 53.276 135.035 36.2551Z" fill="#FFB02C"/>
<path d="M98.1382 48.8077C90.4164 51.573 87.5586 61.6383 89.4544 68.9679C93.6888 85.3372 103.056 100.69 112.339 114.614C114.752 118.232 122.02 132.634 127.584 127.304C129.656 125.319 128.79 122.764 127.41 120.7C124.166 115.849 120.773 111.105 117.538 106.245C106.954 90.3491 91.3278 68.4361 98.1382 48.8077Z" fill="#FFB02C"/>
<path d="M211.111 60.5995C205.203 58.5021 198.313 63.7681 195.644 68.5875C191.354 76.3348 192.058 86.6431 191.257 95.2142C190.862 99.433 189.349 103.558 189.095 107.767C188.899 111.014 191.389 113.754 194.75 112.556C199.434 110.886 198.448 100.047 198.569 95.975C198.901 84.8001 200.018 66.6609 211.111 60.5995Z" fill="#FFB02C"/>
<path d="M77.9779 89.5085C69.6571 92.3606 67.3896 102.793 69.5563 110.429C73.8089 125.419 86.6457 136.931 97.7578 147.021C100.645 149.642 110.813 162.663 114.586 155.303C115.928 152.684 113.951 150.289 112.2 148.468C108.157 144.26 103.661 140.363 99.2793 136.511C86.4007 125.189 70.4631 107.879 77.9779 89.5085Z" fill="#FFB02C"/>
<path d="M17.5015 128.554C14.1268 129.231 14.312 132.484 14.4318 135.154C14.6867 140.826 16.0097 146.279 18.2592 151.511C24.3351 165.639 35.416 175.844 50.2101 180.039C54.1764 181.164 61.0517 182.895 65.0332 181.198C68.1337 179.876 67.8868 175.546 65.0393 174.11C61.5691 172.36 55.9976 173.085 52.112 171.939C40.8242 168.61 31.964 160.668 27.0582 149.989C24.2149 143.8 24.4317 136.968 21.9797 130.976C21.2418 129.172 19.4308 128.168 17.5015 128.554Z" fill="#5092FF"/>
<path d="M3.42328 144.89C0.0958196 145.458 -0.00889854 148.41 0.000116499 151.13C0.0182607 156.608 1.45104 162.041 3.45192 167.106C8.71777 180.437 20.5666 190.297 34.2341 194.052C37.9668 195.078 44.1917 196.699 47.9221 195.172C50.826 193.984 51.3399 189.796 48.6304 188.04C45.719 186.154 39.9794 186.931 36.5164 185.957C26.6953 183.194 17.1132 176.127 12.7236 166.726C9.75431 160.367 10.1956 153.949 8.01787 147.711C7.33988 145.768 5.49609 144.537 3.42328 144.89Z" fill="#5092FF"/>
</svg>
