<svg width="290" height="290" viewBox="0 0 290 290" fill="none" xmlns="http://www.w3.org/2000/svg">
<path fill-rule="evenodd" clip-rule="evenodd" d="M145 290C225.081 290 290 225.081 290 145C290 64.9187 225.081 0 145 0C64.9187 0 0 64.9187 0 145C0 225.081 64.9187 290 145 290ZM211.966 108.544C214.761 103.046 220.51 79.8864 221 69C211.647 69.4814 188.249 74.6546 181.505 78.085L169.706 84.0821L173.882 71.5234C173.928 71.3876 173.972 71.2515 174.015 71.1179C164.954 73.6608 150.846 80.1642 142.314 86.7592L129.759 96.4635L133.725 81.1004C133.746 81.0112 133.769 80.9221 133.792 80.8339C122.231 88.1076 110.111 101.887 105.501 107.128C104.852 107.867 104.304 108.49 103.87 108.971L93.9658 119.975L94.3838 105.593C81.0984 121.368 69 146.901 69 178.854C69 188.136 70.0266 197.527 72.05 206.899C72.6892 209.862 73.4233 212.822 74.2627 215.777C78.0137 216.842 81.7266 217.717 85.4041 218.444C126.544 226.585 162.656 214.277 184.516 195.664L169.897 196.238L181.079 186.175C181.561 185.741 182.182 185.193 182.921 184.544C188.164 179.933 201.942 167.815 209.217 156.255L209.046 156.297L208.95 156.322L193.586 160.287L203.291 147.733C209.899 139.185 216.393 125.116 218.933 116.034C218.798 116.076 218.663 116.121 218.526 116.167L205.966 120.344L211.966 108.544Z" fill="#FFF2E9"/>
</svg>
