<svg width="290" height="290" viewBox="0 0 290 290" fill="none" xmlns="http://www.w3.org/2000/svg">
<path fill-rule="evenodd" clip-rule="evenodd" d="M145 290C225.081 290 290 225.081 290 145C290 64.9187 225.081 0 145 0C64.9187 0 0 64.9187 0 145C0 225.081 64.9187 290 145 290ZM88.9164 155.545L99.6015 178.405L75.9956 231.298V232.2H75.5929L75.2358 233L73.4347 232.2H57V68.4018L71.7004 65.0303L76.3822 64.2001L103.703 122.413L132.771 57.2803L143.9 57L156.466 57.3175L185.898 123.265L213.511 64.4282L216.908 65.0312L233 68.721V232.2H215.643L213.961 232.947L189.608 178.379L200.293 155.519L214.004 186.242V108.034L155.731 232.2H145H134.269L75.9956 108.034V184.496L88.9164 155.545ZM145 210.406L114.409 145.225L144.61 77.5557L175.191 146.077L145 210.406Z" fill="#FFF2E9"/>
</svg>
